<svg xmlns="http://www.w3.org/2000/svg" width="16.48" height="16.058" viewBox="0 0 16.48 16.058">
  <path id="Icon" d="M8.013,15.558a1.01,1.01,0,0,1-.562-.173,22.973,22.973,0,0,1-3.844-3.3,16.122,16.122,0,0,1-2.487-3.4A8.829,8.829,0,0,1,0,4.558C0,1.874,1.73,0,4.208,0,5.969,0,7.387,1.5,8.15,2.3c.69-.748,2.121-2.3,3.9-2.3,2.4,0,3.9,1.748,3.928,4.561a8.818,8.818,0,0,1-1.115,4.108,16.223,16.223,0,0,1-2.475,3.4,23.825,23.825,0,0,1-3.815,3.314A1.01,1.01,0,0,1,8.013,15.558ZM4.183,1.139A3,3,0,0,0,1.9,2.084,3.589,3.589,0,0,0,1.04,4.558a7.813,7.813,0,0,0,1.083,3.77,15.461,15.461,0,0,0,2.383,3.147,23.228,23.228,0,0,0,3.466,2.958,23.65,23.65,0,0,0,3.457-2.976A15.566,15.566,0,0,0,13.8,8.307a7.75,7.75,0,0,0,1.073-3.749c0-2.173-1.034-3.419-2.838-3.419-1.331,0-2.538,1.3-3.259,2.079-.312.336-.537.579-.644.579s-.337-.243-.654-.579C6.745,2.441,5.514,1.139,4.183,1.139Z" transform="translate(0.25 0.25)" fill="#77838f" stroke="#77838f" stroke-miterlimit="10" stroke-width="0.5"/>
</svg>
