<svg xmlns="http://www.w3.org/2000/svg" width="18.065" height="17.825" viewBox="0 0 18.065 17.825">
  <g id="Group_131" data-name="Group 131" transform="translate(-131.165 -386.977)">
    <path id="Path_39" data-name="Path 39" d="M500.6,1146.477c-2.827.012-5.654.006-8.48.006h-6.566a.771.771,0,0,0-.806.871q0,5.595,0,11.189a.77.77,0,0,0,.789.872c.486,0,.971,0,1.457,0h.191c0,.089,0,.153,0,.218q0,.881,0,1.761c0,.35-.005.7,0,1.049s.267.61.57.54a.765.765,0,0,0,.355-.229q1.489-1.6,2.965-3.218a.337.337,0,0,1,.271-.123q2.963.005,5.926,0H500.7a.741.741,0,0,0,.786-.582.181.181,0,0,1,.029-.04v-11.67A.839.839,0,0,0,500.6,1146.477Zm.256,12.386a.674.674,0,0,1-.227.02q-4.641,0-9.283,0a.764.764,0,0,0-.611.271c-.963,1.058-1.935,2.107-2.9,3.162a.739.739,0,0,0-.088.17l-.072-.053v-.189q0-1.352,0-2.7c0-.45-.184-.653-.6-.654-.5,0-1,0-1.506,0-.255,0-.333-.085-.333-.359q0-5.577,0-11.154c0-.265.079-.351.322-.352h15.1c.3,0,.362.072.362.4v7.952q0,1.583,0,3.166C501.022,1158.682,501,1158.813,500.855,1158.864Z" transform="translate(-352.932 -758.85)" fill="none" stroke="#e84b7b" stroke-width="1.3"/>
    <path id="Icon" d="M5.6,0A2.7,2.7,0,0,0,3.783,1.067,2.776,2.776,0,0,0,1.953,0,1.949,1.949,0,0,0,0,2.116C0,4.822,3.312,7.053,3.459,7.142a.467.467,0,0,0,.522,0c.14-.093,3.437-2.334,3.437-5.025C7.407.811,6.713,0,5.6,0Z" transform="translate(136.502 390.866)" fill="#e84b7b"/>
  </g>
</svg>
