<svg id="Layer_1" data-name="Layer 1" xmlns="http://www.w3.org/2000/svg" width="143.43" height="28.12"><defs><style>.cls-1{fill:#6e175b}.cls-2{fill:#f8971d}</style></defs><path class="cls-1" d="M10.9 24.31a.23.23 0 0 1 0 .35 5.67 5.67 0 0 1-4.13 1.72 6 6 0 1 1 0-12A5.73 5.73 0 0 1 10.9 16a.23.23 0 0 1 0 .35l-1.29 1.44a.23.23 0 0 1-.35 0 3.76 3.76 0 0 0-2.51-.93 3.37 3.37 0 0 0-3.36 3.49 3.37 3.37 0 0 0 3.36 3.48 3.77 3.77 0 0 0 2.51-.94.23.23 0 0 1 .35 0zM21.73 26.16h-2.17a.27.27 0 0 1-.28-.2l-.61-1.85h-4.09L14 26a.27.27 0 0 1-.28.2h-2.2c-.19 0-.27-.11-.2-.28l4-11.22a.29.29 0 0 1 .29-.2h1.92a.34.34 0 0 1 .32.2l4 11.22c.15.13.07.24-.12.24zM18 21.92l-1.32-4.05-1.32 4.05zM31.25 26.16H29a.33.33 0 0 1-.3-.16l-2.4-3.78h-.69v3.69a.24.24 0 0 1-.25.25h-2.09a.24.24 0 0 1-.25-.25v-11.2a.24.24 0 0 1 .25-.25h3.56c2.81 0 4.35 1.59 4.35 3.88a3.54 3.54 0 0 1-2.37 3.54l2.6 4c.12.17.04.28-.16.28zm-5.64-6.23h1.17c.92 0 1.92-.35 1.92-1.59s-1-1.59-1.92-1.59h-1.17zM33.27 14.46h2.09a.24.24 0 0 1 .25.25v11.2a.24.24 0 0 1-.25.25h-2.09a.24.24 0 0 1-.25-.25v-11.2a.24.24 0 0 1 .25-.25zM47.71 14.71v11.2a.24.24 0 0 1-.25.25h-2.37a.33.33 0 0 1-.3-.16l-4.11-7.38v7.29a.24.24 0 0 1-.26.25h-2.09a.24.24 0 0 1-.25-.25v-11.2a.24.24 0 0 1 .25-.25h2.36a.3.3 0 0 1 .3.17L45.12 22v-7.29a.24.24 0 0 1 .25-.25h2.09a.24.24 0 0 1 .25.25zM60.56 19.73v1.13c0 3-1.94 5.52-5.27 5.52a6.08 6.08 0 0 1-6.1-6.07 6 6 0 0 1 6.05-6A5.73 5.73 0 0 1 59.37 16a.23.23 0 0 1 0 .35l-1.29 1.41a.23.23 0 0 1-.35 0 3.76 3.76 0 0 0-2.51-.93 3.35 3.35 0 0 0-3.36 3.44 3.38 3.38 0 0 0 3.41 3.53c1.76 0 2.68-1 2.73-2.19h-2.64a.24.24 0 0 1-.26-.25v-1.63a.24.24 0 0 1 .26-.25h5a.24.24 0 0 1 .2.25zM93.35 22.79c0 2.21-1.35 3.37-4.35 3.37h-4.13a.24.24 0 0 1-.25-.25v-11.2a.24.24 0 0 1 .25-.25H89c2.29 0 3.51 1.35 3.51 3a2.56 2.56 0 0 1-1.42 2.42 3 3 0 0 1 2.26 2.91zm-4.62-6h-1.52V19h1.52c.79 0 1.32-.35 1.32-1.17s-.55-1.08-1.32-1.08zm2 5.72c0-1-.71-1.34-1.68-1.34h-1.84v2.74h1.87c1.01-.04 1.68-.49 1.68-1.44zM103.21 26.16H101a.31.31 0 0 1-.3-.16l-2.43-3.78h-.68v3.69a.24.24 0 0 1-.25.25h-2.1a.24.24 0 0 1-.25-.25v-11.2a.24.24 0 0 1 .25-.25h3.56c2.81 0 4.34 1.59 4.34 3.88a3.53 3.53 0 0 1-2.37 3.54l2.61 4c.12.17.03.28-.17.28zm-5.63-6.23h1.17c.92 0 1.92-.35 1.92-1.59s-1-1.59-1.92-1.59h-1.17zM105.23 14.46h2.09a.24.24 0 0 1 .26.25v11.2a.24.24 0 0 1-.26.25h-2.09a.24.24 0 0 1-.25-.25v-11.2a.24.24 0 0 1 .25-.25zM119.78 20.31c0 3.25-2.14 5.85-6.15 5.85h-3.5a.24.24 0 0 1-.25-.25v-11.2a.24.24 0 0 1 .25-.25h3.5c4.01 0 6.15 2.61 6.15 5.85zm-2.64 0c0-2.27-1.17-3.56-3.51-3.56h-1.16v7.12h1.16c2.37 0 3.51-1.28 3.51-3.56zM132.19 19.73v1.13c0 3-1.94 5.52-5.27 5.52a6.09 6.09 0 0 1-6.1-6.07 6 6 0 0 1 6.05-6A5.73 5.73 0 0 1 131 16a.23.23 0 0 1 0 .35l-1.29 1.41a.23.23 0 0 1-.35 0 3.76 3.76 0 0 0-2.51-.93 3.35 3.35 0 0 0-3.36 3.44 3.38 3.38 0 0 0 3.41 3.53c1.76 0 2.68-1 2.73-2.19H127a.24.24 0 0 1-.25-.25v-1.63a.24.24 0 0 1 .25-.25h5a.24.24 0 0 1 .19.25zM140.53 24.12v1.79a.24.24 0 0 1-.25.25H134a.24.24 0 0 1-.25-.25v-11.2a.24.24 0 0 1 .25-.25h6.27a.24.24 0 0 1 .25.25v1.79a.24.24 0 0 1-.25.25h-3.93V19H140a.24.24 0 0 1 .25.25v1.79a.24.24 0 0 1-.25.25h-3.7v2.54h3.95a.24.24 0 0 1 .28.29z" transform="translate(-.72 -1.5)"/><path class="cls-2" d="M86.57 9.64a.73.73 0 0 1-.57-.25 17.92 17.92 0 0 0-27 0 .73.73 0 0 1-1.11 0 .94.94 0 0 1 0-1.22 19.38 19.38 0 0 1 29.26 0 .92.92 0 0 1 0 1.22.73.73 0 0 1-.58.25z" transform="translate(-.72 -1.5)"/><path class="cls-2" d="M76.62 13.07a.79.79 0 0 1-.57-.26 4.82 4.82 0 0 0-7.13 0 .76.76 0 0 1-1.14 0 .92.92 0 0 1 0-1.22 6.35 6.35 0 0 1 9.42 0 .92.92 0 0 1 0 1.22.8.8 0 0 1-.58.26z" transform="translate(-.72 -1.5)"/><path class="cls-2" d="M81.61 11.33a.76.76 0 0 1-.56-.26 11.41 11.41 0 0 0-17.1 0 .75.75 0 0 1-1.13 0 .92.92 0 0 1 0-1.22 12.9 12.9 0 0 1 19.35 0 .92.92 0 0 1 0 1.22.76.76 0 0 1-.56.26zM80.33 14.89c-2-1.35-4-.27-5.49.81-1 .73-1.83 1.45-2.34 1.44-.51 0-1.32-.71-2.34-1.44-1.51-1.08-3.47-2.16-5.49-.81-5.7 3.82 4.22 14.72 7.83 14.73 3.6 0 13.5-10.91 7.83-14.73z" transform="translate(-.72 -1.5)"/><path class="cls-1" d="M144.14 25.05a1.1 1.1 0 1 1-1.09-1.12 1.1 1.1 0 0 1 1.09 1.12zm-.21 0a.89.89 0 1 0-.88.91.89.89 0 0 0 .88-.91zm-.71.16l.34.38v.05h-.14l-.34-.4h-.25v.39h-.11v-1.14h.52c.31 0 .46.16.46.39s-.24.29-.48.33zm.18-.37c0-.12-.08-.2-.28-.2h-.37V25h.37c.2 0 .28-.06.28-.16z" transform="translate(-.72 -1.5)"/></svg>