<svg xmlns="http://www.w3.org/2000/svg" viewBox="0 0 1000 502"><path fill="#369" d="M3 3h992v497H3z"/><path fill="#FEFEFE" d="M567 56H3c-3 0-3-9 0-9h564c2 0 4 2 4 4 0 3-2 5-4 5z"/><path fill="#FEFEFE" d="M116 496V3c0-3 9-3 9 0v493c0 3-9 3-9 0z"/><path fill="#096" d="M121 356c-42 0-82-8-120-25l4-8A296 296 0 0 0 413 3h9l3 48c0 168-136 305-304 305z"/><path fill="#FEFEFE" d="M121 345c-41 0-81-9-118-25-1-1-1-11 2-10A284 284 0 0 0 400 2c0-1 9-1 9 1a293 293 0 0 1-288 342zM142 1l-21 50V1"/><path fill="#096" d="M121 1v50L101 1"/><path fill="#FEFEFE" d="M229 1l-5 8-103 42 50-50z"/><path fill="#39C" d="M121 51l21-50h29z"/><path fill="#FEFEFE" d="M420 51L224 94 121 51z"/><path fill="#096" d="M121 51L225 8l195 43z"/><path fill="#FEFEFE" d="M332 264L163 154 121 51z"/><path fill="#39C" d="M121 51l103 43 108 170z"/><path fill="#FEFEFE" d="M121 351L78 154l43-103z"/><path fill="#096" d="M121 51l43 104-43 196z"/><path fill="#FEFEFE" d="M3 117l15-23 103-43L3 169"/><path fill="#39C" d="M3 169L121 51 78 155 3 203"/><path fill="#096" d="M3 51h123L18 94 3 90"/><path fill="#FEFEFE" d="M96 1l21 49L68 1"/><path fill="#FEFEFE" d="M3 11l15-3 103 43H3"/><path fill="#39C" d="M70 1l48 47L16 4l-3-4"/><path fill="#096" d="M116 55l23-54h94l-5 8-112 46zm32-51l-15 34 83-34h-68z"/><path fill="#096" d="M122 51h-2l20-50h2zM117 48h-1L17 7l-4-6h2l3 4 97 40L96 1h3l19 46v1h-1z"/><path fill="#096" d="M17 96h-1L2 93l2-7 13 3 89-38-90-37-12 2-2-6 13-3h2l99 41c2 0 2 2 2 3s0 3-2 3L18 96h-1z"/><path fill="#096" d="M5 206l-5-7 72-47 36-88-86 36-19 28-1-15 13-19 2-2 98-41c2-1 4-1 5 1 1 1 2 3 1 5L80 157l-2 2-73 47z"/><path fill="#096" d="M120 356c-2 0-4-2-4-4L75 157v-3l41-99c1-2 3-3 5-3s3 1 4 3l41 100v2l-41 195c0 2-2 4-5 4zM85 157l36 172 36-172-36-88-36 88z"/><path fill="#096" d="M334 270l-2-1-168-110-2-3-41-99c-1-1 0-3 1-5l5-1 99 41 2 2 110 168 1 4c0 2-2 4-5 4 1 0 0 0 0 0zM170 152l149 98-97-150-88-36 36 88z"/><path fill="#096" d="M226 97h-2L124 55l-2-4 2-4L224 6l3-1 194 42a5 5 0 0 1 0 9L227 97h-1zm-88-46l88 37 172-37-171-36-89 36z"/><g fill="#FFF"><path d="M512 229h-19l-2-12c-1-2-3-4-6-5a27 27 0 0 0-18 1c-3 1-5 3-6 5l-1 10v35l1 10c0 3 2 5 6 7 3 2 6 2 11 2h6c4-2 7-4 8-7l1-9v-6h19v4l-1 9-2 8c-2 4-5 7-10 9a51 51 0 0 1-41 2c-5-2-9-5-12-9s-5-9-5-17v-37l2-16c1-4 4-7 9-10a48 48 0 0 1 25-6 61 61 0 0 1 15 2c5 1 9 3 13 6s6 7 6 11v13zM528 198h19v38h31v-38h18v96h-18v-43h-31v43h-19zM636 258h19l-10-44-9 44zm-6-59h30l23 96h-19l-7-23h-24l-5 23h-19l21-96zM715 241h15l7-1 5-5 2-8c0-4-1-7-3-9s-5-4-9-5l-5-1h-12v29zm15 14h-15v39h-19v-96h22l25 2c6 2 11 4 14 8l3 5 2 5 1 5v4l-1 9-3 7-4 3-3 3c4 3 7 6 8 9l2 14v11l1 11h-20l-1-5v-5l-1-11c0-5 0-9-2-12-2-4-5-6-9-6zM781 198h19v96h-19zM813 212v-13h64v13h-22v83h-19v-83zM889 198h20l18 41 19-41h20l-29 62v34h-19v-34z"/></g><g fill="#FFF"><path d="M324 374v64h-18v-95h21l33 64v-64h18v95l-21 1zM416 401h19l-10-44-9 44zm-5-58h30l23 95h-20l-6-23h-24l-5 23h-19l21-95zM461 343h20l18 74 18-74h20l-24 95h-27zM548 343h19v96h-19zM635 399h-17v-13h34v53l-14-9-7 6-9 3-6 1a37 37 0 0 1-18-5c-5-2-9-5-11-9-2-5-3-10-3-16v-37c0-6 0-12 2-16 1-4 4-7 8-9 5-3 9-4 13-5l6-1 6-1 18 3c7 2 12 6 14 11a84 84 0 0 1 3 10v8h-19l-1-10c-1-3-3-5-6-6l-9-2-10 2c-2 1-4 3-5 6l-2 9v36l1 10c1 2 3 5 6 6 3 2 7 2 11 2 2 1 5 0 8-1 4-1 6-3 7-6l1-9v-11zM688 401h19l-10-44-9 44zm-5-58h30l23 95h-20l-6-23h-24l-5 23h-19l21-95zM734 356v-13h64v13h-22v83h-19v-83zM859 371c0-6-1-10-3-12-3-3-7-4-13-4-7 0-11 1-14 4-2 2-3 6-3 12v39c0 5 1 9 3 12s7 4 13 4c7 0 11-1 13-4 3-3 4-7 4-12v-39zm19 35c0 10-3 19-7 25-5 6-14 9-28 9s-24-3-29-9c-4-7-7-15-7-25v-31c1-14 4-23 10-27 6-5 15-7 26-7 13 0 23 3 27 9 5 6 8 14 8 25v31zM912 385h16l6-1 6-5 2-8c0-4-1-7-3-9s-5-4-9-5l-6-1h-12v29zm15 15h-15v39h-18v-96h22c10 0 18 0 24 2 7 1 11 3 14 7a34 34 0 0 1 5 10l2 5a34 34 0 0 1-1 13l-4 7-3 4-3 2c3 3 6 6 7 10 2 3 2 8 2 14v11l2 10h-21v-4l-1-6v-10c0-5-1-10-3-13-1-4-4-5-9-5z"/></g><path fill="#096" d="M3 176l-1-13L118 48l6 6z"/><path fill="#096" d="M121 53l-2-1L98 1h5l16 38V1h4v50l-2 2z"/><path fill="#333" d="M996 502H3c-2 0-3-1-3-3V3c0-2 1-3 3-3h993c1 0 2 1 2 3v496c0 2-1 3-2 3zM5 497h989V5H5v492z"/><path fill="#096" d="M121 356h-1c-2 0-4-2-4-5V51c0-2 2-4 4-4 2-1 4 0 5 2l43 104v3l-43 196c0 2-2 4-4 4zm5-282l-1 234 34-153-33-81z"/></svg>